<svg width="25" height="25" viewBox="0 0 25 25" fill="none" xmlns="http://www.w3.org/2000/svg">
<path d="M20.8331 18.4993C19.2398 18.4909 18.6415 19.0859 18.4998 20.7826C15.0148 23.5526 8.79315 23.7109 4.83315 19.5976C1.02315 15.6359 0.963149 9.2976 4.74148 5.21093C8.47481 1.17427 14.8515 0.785934 19.1081 4.3326C23.2898 7.8226 24.0748 14.1859 20.8331 18.4993ZM19.6081 17.4009C22.0865 14.0676 21.8548 8.77593 18.0981 5.60093C16.3586 4.11735 14.1104 3.36839 11.8286 3.5124C9.54694 3.6564 7.41067 4.68209 5.87148 6.3726C2.62815 9.95427 2.77148 15.3009 6.20481 18.6659C9.69148 22.0859 14.8048 21.7043 17.4498 19.5243C17.4065 18.2326 17.9598 17.3909 19.6081 17.4076V17.4009Z" fill="black"/>
<path d="M21.7411 20.0477C22.0717 20.0477 22.3949 20.1461 22.6694 20.3302C22.944 20.5144 23.1576 20.7761 23.283 21.082C23.4085 21.3879 23.4401 21.7242 23.3738 22.0482C23.3076 22.3721 23.1466 22.669 22.9111 22.9011C22.6757 23.1332 22.3766 23.2901 22.0517 23.3518C21.7269 23.4134 21.3911 23.3771 21.087 23.2473C20.7829 23.1176 20.5242 22.9003 20.3439 22.6232C20.1636 22.3461 20.0698 22.0216 20.0745 21.691C20.0707 21.4722 20.1115 21.2549 20.1942 21.0523C20.277 20.8497 20.4 20.666 20.5558 20.5124C20.7116 20.3587 20.8971 20.2383 21.1008 20.1584C21.3045 20.0785 21.5224 20.0409 21.7411 20.0477Z" fill="black"/>
<path d="M18.2836 15.959C16.5886 16.0356 16.1303 16.4973 15.9753 18.2523C13.887 19.7656 9.68197 19.869 7.14197 16.9106C5.99558 15.5923 5.38744 13.8908 5.43852 12.1445C5.48961 10.3983 6.19618 8.73521 7.41768 7.48619C8.63918 6.23717 10.2861 5.49374 12.0308 5.40377C13.7755 5.31379 15.4901 5.88388 16.8336 7.00063C19.8336 9.50063 19.8586 13.6673 18.2836 15.959ZM17.0186 14.879C18.092 13.4206 18.1636 10.2273 15.7886 8.24896C14.7519 7.39123 13.4292 6.95708 12.0858 7.03354C10.7424 7.11001 9.47758 7.69144 8.54485 8.66128C7.61212 9.63111 7.08045 10.9177 7.05643 12.263C7.0324 13.6084 7.5178 14.9131 8.4153 15.9156C10.4286 18.169 13.6253 18.0106 14.9153 16.969C14.942 15.5756 15.427 14.929 17.0186 14.879Z" fill="black"/>
<path d="M15.6259 13.3721C14.1492 13.3721 13.5325 13.9838 13.3642 15.5571C12.2675 16.1138 10.5792 15.6271 9.69754 14.4988C9.19898 13.8686 8.93667 13.0837 8.95608 12.2804C8.9755 11.477 9.27542 10.7058 9.80385 10.1004C10.3323 9.49496 11.0559 9.09354 11.8492 8.96571C12.6426 8.83787 13.4557 8.99168 14.1475 9.40048C14.8128 9.79179 15.323 10.4003 15.5923 11.1237C15.8615 11.847 15.8734 12.6411 15.6259 13.3721V13.3721ZM14.1559 12.2438C14.0792 11.2255 13.2809 10.4871 12.3442 10.5138C11.3775 10.5405 10.5109 11.4455 10.5459 12.3938C10.5583 12.85 10.7471 13.2837 11.0724 13.6038C11.3978 13.9239 11.8345 14.1055 12.2909 14.1105C12.3325 12.9338 13.0209 12.3338 14.1559 12.2438V12.2438Z" fill="black"/>
</svg>
